<svg xmlns="http://www.w3.org/2000/svg" width="1560" height="1560"><g fill="none" fill-rule="evenodd"><path fill="#FFF" d="M0 0h1560v1560H0z"/><path fill="#4990E2" fill-opacity=".204" d="M1203.607 975.95c-14.343 0-26.985 7.28-34.438 18.342l-46.53-26.863 76.99-20.64-4.21-15.7-92.69 24.83-46.32-26.74 187.88-50.34-4.21-15.7-203.58 54.55-53.77-31.05 129.96-34.83-4.21-15.698-145.66 39.03-53.3-30.77 80.21-21.49-4.21-15.69-86.843 23.27 28.28-49.59-29.515-51.76 88.08 23.597 4.205-15.69-80.53-21.576 53.3-30.777 145.98 39.11 4.21-15.695-130.29-34.91 53.77-31.045 203.91 54.64 4.208-15.693-188.21-50.43 46.32-26.74 93.01 24.92 4.21-15.692-77.318-20.71 48.71-28.12c7.42 6.953 17.364 11.24 28.335 11.24 22.916 0 41.496-18.577 41.496-41.496 0-22.92-18.58-41.5-41.495-41.5-22.92 0-41.5 18.58-41.5 41.5 0 6.054 1.327 11.79 3.66 16.98l-47.13 27.21 20.63-76.99-15.695-4.21-24.836 92.69-46.32 26.74 50.34-187.886-15.7-4.204-54.55 203.58L974.474 659l34.82-129.967-15.695-4.203-39.01 145.65-53.31 30.78 21.49-80.205-15.693-4.207-23.55 87.53-29.1-51.39h-58.59l64.06-63.723-10.657-11.317-55.26 56.26v-61.55l103.18-104-11.08-11.49L794 549.69v-62.08L939.577 341.2l-11.072-11.49L794 464.626v-53.482l64.398-65.226-11.072-11.492L794 388.168v-55.2c17-3.933 32.143-20.617 32.143-40.613 0-22.92-18.994-41.498-41.912-41.498s-40.89 18.58-40.89 41.498c0 20.028 12.67 36.738 33.67 40.636v59.95l-59.32-58.51-11.08 11.49 70.41 70v53.48L636.5 329.71l-11.087 11.49L777 492.38v62.082l-98.097-97.287-11.086 11.49L777 577.445v61.55l-61.672-60.862-11.896 11.147 63.66 63.72h-57.9l-29.58 52.218-23.767-88.528-15.694 4.293 21.49 80.244-53.3-30.755-39.03-145.645-15.69 4.213 34.83 129.962-53.76-31.04-54.55-203.58-15.69 4.21 50.34 187.883-46.32-26.742-24.83-92.684-15.69 4.2 20.63 76.99-46.78-27.01c2.39-5.24 3.758-11.05 3.758-17.18 0-22.92-18.58-41.5-41.496-41.5-22.92 0-41.5 18.58-41.5 41.5s18.58 41.49 41.5 41.49c10.886 0 20.763-4.23 28.165-11.09l48.446 27.97-77.32 20.72 4.205 15.69 93.01-24.93 46.32 26.74-188.213 50.43 4.21 15.69 203.9-54.63 53.76 31.05-130.29 34.91 4.204 15.69 145.982-39.11 53.307 30.774-80.53 21.58 4.207 15.694 88.89-23.818-29.64 51.98 28.4 49.81-87.654-23.49-4.205 15.693 80.2 21.495-53.31 30.778-145.66-39.03-4.203 15.69 129.97 34.83-53.77 31.04-203.573-54.55-4.21 15.693 187.86 50.36-46.316 26.74-92.685-24.836-4.21 15.694 76.99 20.63-49.34 28.48c-7.29-11.96-20.4-19.97-35.43-19.97-22.92 0-41.5 18.58-41.5 41.5 0 22.91 18.58 41.49 41.49 41.49 22.92 0 41.5-18.58 41.5-41.5 0-2.05-.19-4.04-.48-6l52.08-30.07-20.71 77.32 15.69 4.2 24.92-93.02 46.32-26.74-50.43 188.21 15.69 4.21 54.64-203.91 53.77-31.04-34.91 130.282 15.69 4.206 39.12-145.98 53.305-30.773-21.577 80.527 15.695 4.21 23.43-88L709.19 907h56.06l-62.223 62.78 12.3 11.762L777 920.956v61.555l-109.59 108.78 11.897 11.49L777 1005.49v62.082l-151.992 151.184 11.896 11.487L777 1090.55v53.488l-70.81 69.996 11.893 11.487L777 1167.01v59.98c-21 3.9-33.872 20.61-33.872 40.637 0 22.92 18.174 41.498 41.093 41.498 22.92 0 42.13-18.58 42.13-41.498 0-19.995-15.34-36.68-32.34-40.613v-55.232l52.91 53.738 11.9-11.487L794 1148.81v-53.488l134.09 134.92 11.902-11.487L794 1072.345v-62.084l91.687 92.52 11.902-11.48L794 987.29v-61.56l55.26 56.09 11.07-12.04L797.697 907h56.75l29.445-51.085 23.212 86.897 15.694-4.07-21.578-80.456 53.307 30.81 39.114 146 15.7-4.2-34.91-130.28 53.77 31.044 54.64 203.906 15.7-4.207-50.42-188.21 46.32 26.74 24.93 93.01 15.697-4.21-20.716-77.32 48.59 28.05c-.51 2.59-.79 5.27-.79 8.01 0 22.92 18.575 41.49 41.494 41.49 22.92 0 41.5-18.58 41.5-41.5s-18.58-41.5-41.5-41.5zM844.59 890H794v-59h-17v59h-57.954l-28.263-48.993 48.537-27.737-8.125-13.928-48.46 28.05-26.555-46.53 27.463-48.145 47.673 27.532 8.125-14.07-47.74-27.89L719.05 670H777v59h17v-59h50.59l27.185 48-49.115 28.514 8.125 14.152 49.04-28.273 27.63 48.48-26.724 46.878-49.82-28.76-8.12 14.07 49.91 28.24-28.1 48.7z"/></g></svg>