<svg viewBox="0 0 499 500" xmlns="http://www.w3.org/2000/svg"><g fill="none" fill-rule="evenodd"><path fill="#FFF" d="M0 0h498.996v498.996H0"/><path d="M450.3 342.585c-6.778 0-12.75 3.44-16.272 8.666l-21.984-12.69 36.375-9.753-1.99-7.418-43.793 11.73-21.885-12.633 88.768-23.784-1.99-7.418-96.185 25.773-25.405-14.67 61.403-16.456-1.99-7.417-68.82 18.44-25.182-14.537 37.898-10.154-1.99-7.413-41.03 10.996 13.36-23.43-13.944-24.455 41.615 11.15 1.986-7.413-38.048-10.194 25.183-14.542 68.972 18.48 1.99-7.416-61.56-16.494 25.406-14.668 96.34 25.816 1.99-7.414-88.924-23.827 21.884-12.634 43.945 11.774 1.99-7.414-36.53-9.785 23.013-13.286c3.505 3.286 8.204 5.31 13.387 5.31 10.827 0 19.606-8.776 19.606-19.605 0-10.83-8.78-19.607-19.607-19.607-10.83 0-19.607 8.778-19.607 19.607 0 2.86.627 5.57 1.73 8.023l-22.268 12.856 9.747-36.376-7.416-1.99-11.735 43.795-21.885 12.633 23.784-88.77-7.417-1.986-25.774 96.185-25.403 14.668 16.45-61.405-7.414-1.986-18.43 68.815-25.188 14.542 10.153-37.895-7.413-1.987-11.127 41.355-13.75-24.28h-27.68l30.265-30.107-5.035-5.347-26.108 26.582v-29.08l48.75-49.138-5.236-5.428-43.505 43.714v-29.33l68.782-69.176-5.23-5.428L256.77 101V75.73l30.426-30.817-5.232-5.43-25.195 25.392v-26.08c8.033-1.858 15.188-9.74 15.188-19.188C271.958 8.777 262.984 0 252.156 0s-19.32 8.778-19.32 19.607c0 9.462 5.987 17.357 15.91 19.2V67.13l-28.028-27.644-5.235 5.43 33.266 33.072v25.268l-66.393-66-5.238 5.428 71.62 71.428v29.332L202.39 97.48l-5.238 5.428 51.585 51.395v29.08L219.6 154.63l-5.62 5.267L244.06 190h-27.356l-13.975 24.672-11.23-41.827-7.415 2.028 10.154 37.913-25.183-14.53-18.44-68.813-7.413 1.99 16.456 61.403-25.4-14.665-25.774-96.185-7.413 1.99 23.784 88.77-21.885-12.636-11.733-43.792-7.413 1.985 9.747 36.375-22.1-12.76c1.128-2.477 1.775-5.222 1.775-8.118 0-10.83-8.78-19.608-19.606-19.608-10.83 0-19.608 8.78-19.608 19.608 0 10.83 8.778 19.603 19.607 19.603 5.142 0 9.81-2 13.306-5.24l22.89 13.215-36.532 9.79 1.987 7.412 43.945-11.778 21.885 12.634-88.925 23.826 1.99 7.413 96.336-25.81 25.4 14.67-61.557 16.493 1.986 7.414 68.97-18.48 25.187 14.54L152.46 229.7l1.987 7.414 41.998-11.253-14.004 24.56 13.42 23.533-41.415-11.098-1.987 7.414 37.892 10.155-25.187 14.542-68.82-18.44-1.986 7.412 61.407 16.456-25.405 14.665-96.183-25.772-1.99 7.414 88.76 23.794-21.884 12.634-43.79-11.735-1.99 7.415 36.376 9.747-23.313 13.456c-3.444-5.65-9.638-9.435-16.74-9.435-10.83 0-19.607 8.78-19.607 19.608 0 10.824 8.778 19.602 19.603 19.602 10.83 0 19.607-8.778 19.607-19.607 0-.968-.09-1.908-.226-2.834L93.59 345.14l-9.785 36.53 7.413 1.985 11.774-43.95 21.885-12.633-23.827 88.923 7.413 1.99 25.816-96.342 25.404-14.665-16.494 61.554 7.413 1.987 18.483-68.972 25.185-14.54-10.194 38.047 7.416 1.99 11.07-41.578 14.14 24.54h26.486l-29.4 29.663 5.813 5.557 29.14-28.625v29.083l-51.78 51.395 5.622 5.43 46.157-45.968v29.33l-71.812 71.43 5.62 5.43 66.19-66.002V422l-33.454 33.072 5.62 5.428 27.835-27.645v28.34c-9.922 1.84-16.004 9.736-16.004 19.198 0 10.83 8.587 19.607 19.415 19.607 10.83 0 19.906-8.778 19.906-19.607 0-9.447-7.247-17.33-15.28-19.188V435.11l25 25.39 5.62-5.428-30.625-30.816v-25.272l63.355 63.746 5.623-5.427-68.977-69.174v-29.334l43.32 43.713 5.624-5.425-48.943-49.142v-29.086l26.11 26.5 5.23-5.687-29.592-29.662h26.813l13.913-24.136 10.967 41.056 7.415-1.923-10.195-38.013 25.186 14.557 18.48 68.98 7.418-1.985-16.494-61.553 25.404 14.667L393.24 418l7.418-1.99-23.822-88.923 21.885 12.634 11.78 43.946 7.416-1.99-9.788-36.53 22.958 13.252c-.24 1.224-.374 2.49-.374 3.784 0 10.83 8.776 19.603 19.605 19.603 10.83 0 19.607-8.778 19.607-19.607 0-10.83-8.778-19.608-19.607-19.608l-.018.015zm-169.626-40.61H256.77V274.1h-8.03v27.876h-27.382l-13.353-23.148 22.932-13.105-3.84-6.58-22.895 13.253-12.546-21.984 12.975-22.748 22.525 13.008 3.84-6.647-22.557-13.177 12.922-22.815h27.38v27.875h8.03v-27.875h23.904l12.844 22.678-23.206 13.473 3.84 6.687 23.17-13.36 13.054 22.907-12.627 22.148-23.54-13.588-3.836 6.648 23.58 13.342-13.275 23.01h-.006z" fill-opacity=".204" fill="#4990E2"/><path d="M184.324 174.43H151c.306-30.95 9.537-55.424 27.693-73.426C196.85 83 221.17 74 251.66 74c30.03 0 53.624 7.584 70.784 22.752 17.16 15.168 25.74 34.013 25.74 56.535 0 10.725-2.337 20.645-7.01 29.762-4.673 9.115-11.76 17.31-21.258 24.59-9.5 7.277-26.122 15.588-49.87 24.934-29.877 11.95-47.956 20.837-54.237 26.66-6.436 5.974-9.654 13.175-9.654 21.602 0 8.886 4.328 16.853 12.985 23.9 8.657 7.05 19.88 10.573 33.67 10.573 15.167 0 26.81-3.87 34.932-11.607 8.12-7.737 13.1-20.11 14.938-37.116h33.553c-1.072 25.587-9 45.466-23.786 59.638-14.785 14.172-34.664 21.258-59.638 21.258-24.82 0-44.585-6.435-59.294-19.305-14.708-12.87-22.062-28.727-22.062-47.572 0-9.193 2.03-17.887 6.09-26.084 4.06-8.197 9.805-15.053 17.236-20.57 7.43-5.515 21.412-12.486 41.942-20.912 33.094-13.483 54.314-23.595 63.66-30.336 9.192-6.742 13.79-16.394 13.79-28.957 0-13.33-5.632-24.59-16.893-33.783-11.262-9.193-26.315-13.79-45.16-13.79-22.982 0-40.83 7.584-53.548 22.752-8.886 10.572-13.636 25.74-14.248 45.504zm67.106 195.575c7.814 0 14.48 2.758 19.994 8.274 5.516 5.514 8.274 12.256 8.274 20.223 0 7.813-2.758 14.516-8.274 20.11-5.515 5.59-12.18 8.387-19.994 8.387s-14.478-2.796-19.994-8.388c-5.515-5.593-8.273-12.296-8.273-20.11 0-7.966 2.758-14.708 8.273-20.223 5.516-5.517 12.18-8.275 19.994-8.275z" fill="#000"/></g></svg>